# xmcd CD database file
#
# Track frame offsets:
#	225
#	24828
#	44639
#	68997
#	90484
#	111447
#	129830
#	151904
#	174055
#	196715
#	216286
#	245384
#
# Disc length: 3980 seconds
#
# Revision: 0
# Processed by: cddbd v1.5.1PL0 Copyright (c) Steve Scherf et al.
# Submitted via: CDex 1.51
#
DISCID=950f890c
DTITLE=JugendJazzOrchester NRW - Best Of JJO CD1
DYEAR=2000
DGENRE=Jazz
TTITLE0=Get It Clear
TTITLE1=Blue Stone
TTITLE2=Two New Brothers
TTITLE3=Soon In Spring
TTITLE4=Rocking Horse
TTITLE5=Farfallo
TTITLE6=Here's That Rainy Day
TTITLE7=Portrait Of An Obstinate Lady
TTITLE8=Beau Rivage
TTITLE9=Lazy Lions
TTITLE10=Chicken Wings
TTITLE11=Minimal Voyage
EXTD=YEAR: 2000
EXTT0=
EXTT1=
EXTT2=
EXTT3=
EXTT4=
EXTT5=
EXTT6=
EXTT7=
EXTT8=
EXTT9=
EXTT10=
EXTT11=
PLAYORDER=
